# xmcd
# 
# Track frame offsets:
#     150
#     15306
#     30960
#     42352
#     55905
#     67933
#     78402
#     92610
#     108511
#     129749
# 
# Disc length: 1855
# 
# Revision: 2
# Processed by: cddbd v1.5.2PL0 Copyright (c) Steve Scherf et al.
# Submitted via: fre:ac v1.0.31
# 
DISCID=72073d0a
DTITLE=Son Volt - Notes of Blue
DYEAR=2016
DGENRE=Blues
TTITLE0=Promise the World
TTITLE1=Back Against the Wall
TTITLE2=Static
TTITLE3=Cherokee St
TTITLE4=The Storm
TTITLE5=Lost Souls
TTITLE6=Midnight
TTITLE7=Sinking Down
TTITLE8=Cairo and Southern
TTITLE9=Threads and Steel
EXTD=YEAR: 2016
EXTT0=
EXTT1=
EXTT2=
EXTT3=
EXTT4=
EXTT5=
EXTT6=
EXTT7=
EXTT8=
EXTT9=
PLAYORDER=
